<?xml version="1.0" encoding="UTF-8"?>
<svg width="43px" height="62px" viewBox="0 0 43 62" version="1.1" xmlns="http://www.w3.org/2000/svg" xmlns:xlink="http://www.w3.org/1999/xlink">
    <!-- Generator: Sketch 52.4 (67378) - http://www.bohemiancoding.com/sketch -->
    <title>pencil-case</title>
    <desc>Created with Sketch.</desc>
    <g id="Welcome" stroke="none" stroke-width="1" fill="none" fill-rule="evenodd">
        <g id="Desktop" transform="translate(-156.000000, -760.000000)" fill="#788BE8">
            <g id="pencil-case" transform="translate(156.000000, 760.000000)">
                <path d="M9,36 C8.448,36 8,36.448 8,37 C8,37.552 8.448,38 9,38 C9.552,38 10,37.552 10,37 C10,36.448 9.552,36 9,36 Z" id="Path"></path>
                <path d="M9,39 C8.4477,39 8,39.5519589 8,40.2328767 L8,55.7671233 C8,56.4480411 8.4477,57 9,57 C9.5523,57 10,56.4480411 10,55.7671233 L10,40.2328767 C10,39.5519589 9.5522,39 9,39 Z" id="Path"></path>
                <path d="M41.5282812,0.910166816 C41.4301604,0.520850577 41.1484204,0.206370243 40.7764188,0.070866395 C40.4042981,-0.0645163595 39.9903809,-0.00360622936 39.6716074,0.233737419 C38.4816548,1.11953782 32.4965252,5.6759304 31.5216286,8.39835892 C30.942073,10.0199246 31.0737739,11.7899512 31.8518336,13.2893334 C30.3919297,15.4188872 28.8797504,18.3592843 27.5489277,21.2322323 L27.5489277,1.21096356 C27.5489277,0.542163068 27.0156937,2.65815848e-05 26.3581415,2.65815848e-05 L16.831852,2.65815848e-05 C16.1741808,2.65815848e-05 15.6410659,0.542163068 15.6410659,1.21096356 L15.6410659,24.9453284 L15.4273197,24.9453284 L13.3934569,16.8987732 C13.3925043,16.8947772 13.3914326,16.8907811 13.3903609,16.886785 L11.5410699,9.86940516 C11.5301147,9.8283544 11.5171351,9.78863567 11.5023694,9.7495224 C11.4978444,9.73753413 11.4923668,9.72603022 11.4874846,9.71416304 C11.4762912,9.68691696 11.4646215,9.66003416 11.4514037,9.63363573 C11.4449735,9.6207998 11.4379479,9.60844824 11.4310413,9.5958545 C11.4175854,9.57103029 11.4034151,9.54656936 11.388173,9.52271391 C11.3804329,9.51072563 11.3724546,9.49897954 11.3643573,9.48723345 C11.3480435,9.46362018 11.3308962,9.44073347 11.3129153,9.41821004 C11.307914,9.41203427 11.3038653,9.40525302 11.298745,9.39919833 L4.23261973,0.932326963 C3.93682844,0.577885709 3.46765868,0.427002961 3.02528161,0.54385838 C2.58290455,0.660713798 2.24531666,1.02484255 2.15660309,1.48088142 L0.0215234603,12.4543923 C0.0199754383,12.4625056 0.0196182024,12.47074 0.018189259,12.4787322 C0.0127116425,12.5103376 0.00818665503,12.5419431 0.00520968956,12.5736696 C0.00389982476,12.587111 0.00306627443,12.6005524 0.0022327241,12.6139938 C0.00044654482,12.6442673 -0.000267926892,12.6742985 8.93089639e-05,12.7044508 C0.000208387583,12.7184977 0.000327466201,12.7325446 0.00104193791,12.7465914 C0.00247088134,12.7774703 0.0054478468,12.808107 0.00925836259,12.8387437 C0.0108063846,12.8513375 0.0117590136,12.8638101 0.0136642715,12.8762828 C0.0202135955,12.9190289 0.0285490988,12.9612906 0.0395043317,13.0030679 L1.88665186,20.0134243 L3.12578397,24.9983674 C2.40297675,25.1236994 1.73673188,25.4712383 1.20742742,26.0094998 C0.532608891,26.6958589 0.160845444,27.6080577 0.160845444,28.5780182 C0.160845444,30.1565957 1.15646177,31.5026732 2.54241782,32.002548 L2.54241782,55.9453151 C2.54241782,59.2838684 5.21335123,62 8.49634874,62 L32.3120725,62 C35.59507,62 38.2660034,59.2838684 38.2660034,55.9453151 L38.2660034,32.0046066 C38.7623231,31.8264778 39.2175606,31.5364584 39.6009938,31.1466578 C40.2759314,30.4602987 40.6475758,29.5480999 40.6475758,28.5781393 C40.6475758,26.8087182 39.396774,25.3314962 37.7472969,25.010719 C38.5240468,21.8012516 39.0715702,18.6117647 39.2736467,16.1092423 C40.8633462,15.4840356 42.1172441,14.2005635 42.7120418,12.5394001 C43.6888437,9.81164347 41.8974249,2.37358416 41.5282812,0.910166816 Z M33.4362937,15.2281646 C33.9286838,15.6220824 34.481804,15.9368049 35.0805313,16.1584064 C35.6528231,16.3701993 36.2476208,16.4903242 36.8457527,16.5181757 C36.6070001,18.9325419 36.0599529,21.9384508 35.3083287,24.9453284 L28.5013185,24.9453284 C30.3197681,20.7550021 31.999372,17.4486597 33.4362937,15.2281646 Z M18.0226382,2.42190054 L25.1673553,2.42190054 L25.1673553,5.2070556 L22.785783,5.2070556 C22.1282308,5.2070556 21.5949968,5.74919209 21.5949968,6.41799258 C21.5949968,7.08679307 22.1282308,7.62892956 22.785783,7.62892956 L25.1673553,7.62892956 L25.1673553,10.0508035 L22.785783,10.0508035 C22.1282308,10.0508035 21.5949968,10.59294 21.5949968,11.2617405 C21.5949968,11.930541 22.1282308,12.4726775 22.785783,12.4726775 L25.1673553,12.4726775 L25.1673553,14.8945514 L22.785783,14.8945514 C22.1282308,14.8945514 21.5949968,15.4366879 21.5949968,16.1054884 C21.5949968,16.7742889 22.1282308,17.3164254 22.785783,17.3164254 L25.1673553,17.3164254 L25.1673553,19.7382994 L22.785783,19.7382994 C22.1282308,19.7382994 21.5949968,20.2804359 21.5949968,20.9492363 C21.5949968,21.6180368 22.1282308,22.1601733 22.785783,22.1601733 L25.1673553,22.1601733 L25.1673553,24.9453284 L18.0226382,24.9453284 L18.0226382,2.42190054 Z M4.01375323,4.41304422 L8.89919171,10.2669558 C8.16483387,11.2103968 7.15647613,11.8870684 5.99248263,12.2040917 C4.83301412,12.5200251 3.63210625,12.4483377 2.53586849,12.0091308 L4.01375323,4.41304422 Z M2.93930685,14.6516375 C3.46682513,14.7640124 4.00410786,14.8215319 4.54436755,14.8215319 C5.23276105,14.8215319 5.92591768,14.7295007 6.60871448,14.5435008 C7.82784138,14.2114619 8.9259844,13.601634 9.83979372,12.7698414 L11.0884521,17.5078745 L12.9683463,24.9453284 L5.56891999,24.9453284 L4.19332378,19.4112253 C4.19201392,19.405655 4.19058498,19.4000847 4.18903695,19.3946355 L2.93930685,14.6516375 Z M35.884431,55.9453151 C35.884431,57.948447 34.281871,59.578126 32.3120725,59.578126 L8.49634874,59.578126 C6.52655024,59.578126 4.92399019,57.948447 4.92399019,55.9453151 L4.92399019,32.2109503 L35.884431,32.2109503 L35.884431,55.9453151 Z M38.2660034,28.5781393 C38.2660034,28.9012173 38.1420425,29.2052836 37.916984,29.4340296 C37.6918063,29.6630178 37.392919,29.7890763 37.0752172,29.7890763 L3.733204,29.7890763 C3.0766045,29.7890763 2.54241782,29.24585 2.54241782,28.5781393 C2.54241782,28.2550613 2.66637866,27.9509951 2.89143725,27.7222491 C3.11661491,27.4932609 3.41550225,27.3672023 3.733204,27.3672023 L14.4961249,27.3672023 C14.4985065,27.3672023 14.500769,27.3674445 14.5030315,27.3674445 C14.5045795,27.3674445 14.5061275,27.3672023 14.5076756,27.3672023 L26.6803683,27.3672023 C26.6822735,27.3672023 26.6842979,27.3674445 26.6862031,27.3674445 C26.687513,27.3674445 26.6888229,27.3672023 26.6902518,27.3672023 L36.2248768,27.3672023 C36.2263057,27.3672023 36.2278538,27.3674445 36.2292827,27.3674445 C36.2316643,27.3674445 36.2339268,27.3672023 36.2363083,27.3672023 L37.0753363,27.3672023 C37.7316976,27.3672023 38.2660034,27.9104287 38.2660034,28.5781393 Z M40.4740782,11.710877 C40.0538498,12.8845172 39.0857406,13.746341 37.8816176,14.0166221 C37.2227556,14.1660518 36.5359101,14.1196729 35.8951481,13.8826925 C35.2312848,13.6368723 34.6598265,13.2021459 34.2428132,12.625861 C34.2426941,12.6256188 34.2424559,12.6253766 34.2423369,12.6251345 C33.5304849,11.6427013 33.3501999,10.371944 33.7594731,9.22651872 C34.2057797,7.98022238 37.1104645,5.32270008 39.6385035,3.30128298 C40.3339227,6.51486754 40.9195513,10.4668815 40.4740782,11.710877 Z" id="Shape" fill-rule="nonzero"></path>
            </g>
        </g>
    </g>
</svg>