<?xml version="1.0" encoding="UTF-8"?>
<svg width="40px" height="35px" viewBox="0 0 40 35" version="1.1" xmlns="http://www.w3.org/2000/svg" xmlns:xlink="http://www.w3.org/1999/xlink">
    <!-- Generator: Sketch 52.4 (67378) - http://www.bohemiancoding.com/sketch -->
    <title>present</title>
    <desc>Created with Sketch.</desc>
    <g id="Welcome" stroke="none" stroke-width="1" fill="none" fill-rule="evenodd">
        <g id="Desktop" transform="translate(-245.000000, -545.000000)" fill="#FCFCFC">
            <g id="present" transform="translate(245.000000, 545.000000)">
                <path d="M29.7986878,1.24548154 C29.6892922,0.903300048 29.3300915,0.717042759 28.9967357,0.829162172 L28.7710807,0.905038334 L28.7710807,0.651857054 C28.7710807,0.291771217 28.4865335,0 28.1355523,0 C27.7845712,0 27.500024,0.291771217 27.500024,0.651857054 L27.500024,0.905125248 L27.274369,0.829249087 C26.9409284,0.717390416 26.5818125,0.903473877 26.4724169,1.24556846 C26.3631908,1.58766304 26.5449519,1.95591882 26.8783924,2.06812515 L27.1126058,2.14695639 L26.965248,2.35702819 C26.6614654,2.78994819 26.9675359,3.38983051 27.4804497,3.38983051 C27.8508356,3.38983051 27.9948887,3.12135232 28.1356371,2.92084109 L28.2745212,3.11865797 C28.4794156,3.41068993 28.8764937,3.47735318 29.1616341,3.26684681 C29.4464356,3.05651427 29.5111747,2.64923398 29.3061109,2.35694128 L29.1586683,2.14686948 L29.3928817,2.06803823 C29.7263223,1.9558319 29.9080834,1.58757613 29.7986878,1.24548154 Z" id="Path"></path>
                <path d="M34.5444505,7.34720839 C34.4350549,7.00501812 34.0758542,6.81875606 33.7424984,6.93087835 L33.5168435,7.00675645 L33.5168435,6.75356868 C33.5168435,6.39347361 33.2322962,6.10169492 32.8813151,6.10169492 C32.5303339,6.10169492 32.2457867,6.39347361 32.2457867,6.75356868 L32.2457867,7.00675645 L32.0201317,6.93087835 C31.6866912,6.81919064 31.32766,7.00510504 31.2181796,7.34720839 C31.1089535,7.68922483 31.2907146,8.05749005 31.6241552,8.16969926 L31.8583686,8.24853252 L31.710926,8.45860971 C31.5059469,8.75082299 31.5706013,9.15820064 31.8554875,9.36853857 C32.1407126,9.57913726 32.5375366,9.51221155 32.7426004,9.22034594 L32.8813998,9.02252398 C33.0149455,9.2127842 33.1610323,9.49152542 33.5365872,9.49152542 C34.0483994,9.49152542 34.3560799,8.89232306 34.0518736,8.45869663 L33.904431,8.24861944 L34.1386444,8.16978617 C34.472085,8.05757697 34.6538461,7.68931175 34.5444505,7.34720839 Z" id="Path"></path>
                <circle id="Oval" cx="27.1186441" cy="6.10169492" r="1"></circle>
                <circle id="Oval" cx="36.6101695" cy="15.5932203" r="1"></circle>
                <circle id="Oval" cx="29.8305085" cy="10.8474576" r="1"></circle>
                <circle id="Oval" cx="36.6101695" cy="3.38983051" r="1"></circle>
                <path d="M25.4942873,7.78411734 C25.1872296,7.39083911 24.7520806,7.35138111 24.7520806,7.35138111 C24.4139633,7.30305524 24.1281363,7.55094907 24.0837092,7.86799608 C24.0362942,8.20310428 24.2612601,8.51087663 24.5822356,8.55952793 L23.5301405,9.62041914 C23.390962,9.76116621 23.3272701,9.9629308 23.3602955,10.1606275 L23.6087724,11.6592991 C21.8753317,10.716131 22.1800304,10.7223141 20.4603502,11.6584042 L20.7063895,10.1606275 C20.7394149,9.9629308 20.675723,9.76124757 20.5373309,9.62041914 L19.484528,8.55952793 L20.9392186,8.3407598 C21.1310805,8.31147139 21.2969939,8.1869143 21.3827027,8.00711602 L22.033775,6.64357793 L22.2901151,7.18134564 C22.3899776,7.39124589 22.5929266,7.5221488 22.8193079,7.5221488 C23.2558723,7.5221488 23.5404413,7.04702574 23.3484221,6.64105587 L23.0913744,6.10336952 C22.6582697,5.18566608 21.3975641,5.20877138 20.9753893,6.10336952 L20.4627878,7.17890494 C19.2928234,7.35471674 18.9270277,7.33006566 18.5724764,7.78411734 C18.3979135,8.0062211 18.3051278,8.27551173 18.3051278,8.56270084 C18.3005672,9.19557452 18.6579493,9.42906821 19.4916835,10.2704591 L19.2958901,11.4533853 C19.2840953,11.5217249 19.278591,11.5925053 19.278591,11.6632856 C19.2778047,11.9903395 19.4083337,12.3076305 19.63558,12.5338021 C19.8638484,12.7624958 20.1588754,12.8811952 20.4596425,12.8811952 C20.8277972,12.8811952 20.9574612,12.7669704 22.0329887,12.1815277 L23.0599216,12.7395532 C23.8401862,13.1677334 24.7903743,12.5735042 24.7882513,11.6632856 C24.7882513,11.5925053 24.782747,11.5217249 24.7709522,11.4533853 L24.5751587,10.2704591 L25.4054332,9.43329876 C25.8482882,8.99079973 25.881235,8.27648801 25.4942873,7.78411734 Z" id="Path"></path>
                <path d="M39.4140595,17.9345243 L31.615426,17.9345243 L31.8933962,17.6660117 C32.6765252,16.9098571 32.2437105,15.591289 31.1619862,15.435708 L29.6571348,15.2189783 L28.9841626,13.867978 C28.5002539,12.8963322 27.1009499,12.8967966 26.6172756,13.867978 L25.9442253,15.2189783 L24.439452,15.435708 C23.3573371,15.5913664 22.9252255,16.9100893 23.7079639,17.6660117 L23.9860122,17.9345243 L21.8895952,17.9345243 C21.9238923,17.5992125 21.8120167,17.2518257 21.5533435,16.995388 L18.2387954,13.7114682 C17.7818399,13.2588127 17.0384768,13.2588127 16.5815994,13.7114682 C15.4488593,14.8338186 15.1143263,15.1651828 14.5422141,15.7320859 L12.2961089,13.506736 C11.7469654,12.9625896 10.9712584,12.7566963 10.220942,12.9557781 C9.47070384,13.1549372 8.90281032,13.7176605 8.70179367,14.4608886 L7.52717831,18.8040749 C6.82584661,19.099137 6.27560944,19.6440574 5.97771729,20.3392954 L1.59410121,21.5029793 C-0.00332880259,21.9269181 -0.539425284,23.904422 0.630971304,25.0642357 L2.8770765,27.2895856 C1.72496125,28.4310546 0.948785423,29.2001355 0.837691107,29.3101258 C0.379641899,29.763865 0.379641899,30.4983466 0.837691107,30.9521631 L4.15223924,34.2361603 C4.38067791,34.4624881 4.68075756,34.575652 4.98083721,34.575652 C5.28091687,34.575652 5.58099652,34.4624881 5.80943519,34.2361603 L21.090763,19.0955764 L38.828119,19.0955764 L38.828119,32.834693 C38.8273378,33.1535953 38.5648364,33.4143676 38.2421785,33.4152191 L18.4768435,33.4152191 C18.1541856,33.4143676 17.8916842,33.1535953 17.890903,32.834693 L17.890903,25.4310508 C17.890903,25.1113744 17.6284016,24.8505247 17.3049625,24.8505247 C16.9823046,24.8505247 16.7198033,25.1106004 16.719022,25.4295027 C16.719022,25.4302767 16.719022,25.4310508 16.719022,25.4310508 L16.719022,32.834693 C16.719022,33.2998879 16.9018354,33.7372175 17.2338684,34.0661823 C17.5659013,34.3942956 18.0073098,34.5762712 18.4768435,34.5762712 L38.2421785,34.5762712 C39.2092928,34.5762712 40,33.8012302 40,32.834693 L40,18.5150504 C40,18.1919683 39.733358,17.9345243 39.4140595,17.9345243 Z M9.83351819,14.7615237 C10.0280504,14.0422132 10.9352426,13.8005596 11.4672765,14.3277547 L13.7133817,16.5531045 C12.906737,17.3522954 11.9816541,18.2688299 11.0049304,19.2366056 L11.7118871,16.6225354 C11.7956376,16.3127667 11.6101679,15.9944837 11.2975881,15.9115071 C10.9850084,15.8284532 10.6636787,16.0122865 10.5800064,16.3219778 L9.89945602,18.8384421 C9.55140738,18.6790683 9.17945236,18.5905188 8.80241918,18.5744962 L9.83351819,14.7615237 Z M8.17796288,19.803973 C8.81320049,19.620372 9.49375083,19.7986322 9.95117504,20.280701 C9.12937398,21.0948308 8.2893697,21.9270729 7.46772488,22.7412026 C6.47490733,21.8143734 6.88514379,20.1775996 8.17796288,19.803973 Z M1.45941302,24.2433719 C1.20980238,23.9959904 1.11527065,23.6465911 1.20667736,23.3087249 C1.29800595,22.9708587 1.55621039,22.7151177 1.89714963,22.6245556 L5.74576299,21.6029072 C5.76193494,21.9764563 5.8513104,22.3449743 6.01209247,22.6898841 L3.47223578,23.3641458 C3.15957794,23.4470449 2.97410824,23.7654828 3.05793679,24.0751741 C3.14168722,24.3848654 3.46293886,24.5686213 3.77551857,24.4857221 L6.41396952,23.7852981 C5.43716766,24.7530737 4.51185045,25.6699179 3.70544009,26.4687991 L1.45941302,24.2433719 Z M4.98060284,33.4152191 L1.66613283,30.1312993 C1.79011783,30.00846 2.74145081,29.0659179 4.1198172,27.7002884 C4.1198172,27.700211 4.1198172,27.700211 4.1198172,27.700211 L4.11989533,27.7001336 C5.1933383,26.6366099 13.6640846,18.2439834 14.9562005,16.96373 L14.9563568,16.9635751 C15.9839401,15.9454099 14.6465115,17.2705573 17.409963,14.5325642 L20.7249799,17.8158648 L4.98060284,33.4152191 Z M31.0754233,16.834621 L29.9365112,17.9346017 L25.6647707,17.9346017 C24.4402332,16.7518766 24.4492958,16.8036596 24.4884366,16.6844582 C24.5280462,16.5637088 24.469999,16.6045004 26.4175089,16.3241451 C26.6083693,16.2967442 26.7733701,16.1779299 26.858683,16.0065586 C27.7324375,14.2525959 27.6740778,14.3001216 27.800641,14.3001216 C27.9272822,14.3001216 27.8688444,14.2525959 28.7425208,16.0065586 C28.8279118,16.1779299 28.9928345,16.2966668 29.1836949,16.3241451 L30.9934697,16.5846851 C31.115736,16.6022557 31.1640175,16.7490127 31.0754233,16.834621 Z" id="Shape" fill-rule="nonzero"></path>
            </g>
        </g>
    </g>
</svg>