<?xml version="1.0" encoding="UTF-8"?>
<svg width="69px" height="60px" viewBox="0 0 69 60" version="1.1" xmlns="http://www.w3.org/2000/svg" xmlns:xlink="http://www.w3.org/1999/xlink">
    <!-- Generator: Sketch 52.4 (67378) - http://www.bohemiancoding.com/sketch -->
    <title>present</title>
    <desc>Created with Sketch.</desc>
    <g id="Welcome" stroke="none" stroke-width="1" fill="none" fill-rule="evenodd">
        <g id="Desktop" transform="translate(-817.000000, -764.000000)" fill="#788BE8">
            <g id="present" transform="translate(817.000000, 764.000000)">
                <path d="M51.9436774,2.20450233 C51.7500471,1.59884109 51.114262,1.26916568 50.5242222,1.46761705 L50.1248129,1.60191785 L50.1248129,1.15378699 C50.1248129,0.516435055 49.6211643,0 48.9999277,0 C48.378691,0 47.8750424,0.516435055 47.8750424,1.15378699 L47.8750424,1.60207169 L47.4756331,1.46777088 C46.8854433,1.26978104 46.2498082,1.59914876 46.0561779,2.20465617 C45.8628476,2.81016358 46.1845648,3.46197631 46.7747546,3.66058151 L47.1893123,3.80011281 L46.9284889,4.1719399 C46.3907938,4.9382083 46.9325385,6 47.8403959,6 C48.4959791,6 48.750953,5.5247936 49.0000776,5.16988872 L49.2459026,5.52002461 C49.6085656,6.03692118 50.3113939,6.15491513 50.8160924,5.78231886 C51.320191,5.41003025 51.4347793,4.68914415 51.0718163,4.17178606 L50.8108429,3.79995898 L51.2254007,3.66042767 C51.8155904,3.46182247 52.1373076,2.81000974 51.9436774,2.20450233 Z" id="Path"></path>
                <path d="M59.9436774,13.2045589 C59.7500471,12.5988821 59.114262,12.2691982 58.5242222,12.4676547 L58.1248129,12.6019589 L58.1248129,12.1538166 C58.1248129,11.5164483 57.6211643,11 56.9999277,11 C56.378691,11 55.8750424,11.5164483 55.8750424,12.1538166 L55.8750424,12.6019589 L55.4756331,12.4676547 C54.8854433,12.2699674 54.2499582,12.5990359 54.0561779,13.2045589 C53.8628476,13.809928 54.1845648,14.4617574 54.7747546,14.6603677 L55.1893123,14.7999026 L54.928339,15.1717392 C54.565526,15.6889567 54.6799643,16.4100151 55.1842129,16.7823133 C55.6890614,17.1550729 56.3914397,17.0366144 56.7544027,16.5200123 L57.0000776,16.1698674 C57.2364535,16.506628 57.4950272,17 58.1597593,17 C59.0656669,17 59.6102614,15.9394118 59.0718163,15.171893 L58.8108429,14.8000564 L59.2254007,14.6605215 C59.8155904,14.4619112 60.1373076,13.8100818 59.9436774,13.2045589 Z" id="Path"></path>
                <circle id="Oval" cx="47" cy="11" r="1"></circle>
                <circle id="Oval" cx="63" cy="27" r="1"></circle>
                <circle id="Oval" cx="51" cy="19" r="1"></circle>
                <circle id="Oval" cx="63" cy="6" r="1"></circle>
                <path d="M44.5320872,13.1145864 C43.9968298,12.4290309 43.2382859,12.3602484 43.2382859,12.3602484 C42.648886,12.2760077 42.1506375,12.7081317 42.0731931,13.2608023 C41.9905401,13.8449568 42.3826966,14.3814599 42.9422153,14.466268 L41.1082222,16.3155943 C40.8656087,16.560942 40.7545822,16.9126544 40.8121515,17.2572758 L41.2452919,19.8697327 C38.2235895,18.2256193 38.7547347,18.2363976 35.7570196,19.8681727 L36.1859108,17.2572758 C36.2434801,16.9126544 36.1324536,16.5610838 35.8912108,16.3155943 L34.0559841,14.466268 L36.5917743,14.0849154 C36.9262244,14.0338604 37.2154416,13.8167347 37.3648476,13.5033136 L38.499785,11.1264188 L38.9466324,12.0638457 C39.120711,12.42974 39.4744879,12.6579276 39.8691117,12.6579276 C40.6301229,12.6579276 41.1261783,11.8297017 40.791454,11.1220224 L40.343373,10.1847373 C39.5883929,8.58501337 37.3907538,8.62529011 36.6548263,10.1847373 L35.7612687,12.0595911 C33.7218081,12.366063 33.0841596,12.3230917 32.4661122,13.1145864 C32.1618174,13.5017536 32.0000751,13.9711761 32.0000751,14.471799 C31.992125,15.5750129 32.615107,15.9820348 34.0684574,17.4487321 L33.7271538,19.5107876 C33.7065933,19.629916 33.6969984,19.7532989 33.6969984,19.8766819 C33.6956278,20.4467963 33.9231635,20.9998923 34.3192951,21.3941505 C34.7172085,21.7928052 35.2314942,21.9997198 35.7557859,21.9997198 C36.3975464,21.9997198 36.6235744,21.8006052 38.4984143,20.7800721 L40.2885451,21.7528121 C41.6486881,22.4992081 43.3050389,21.4633585 43.301338,19.8766819 C43.301338,19.7532989 43.2917431,19.629916 43.2711826,19.5107876 L42.929879,17.4487321 L44.3771984,15.9894094 C45.1491751,15.2180532 45.2066074,13.972878 44.5320872,13.1145864 Z" id="Path"></path>
                <path d="M67.9892527,30.8509403 L54.5366099,30.8509403 L55.0161084,30.3806236 C56.367006,29.0561716 55.6204006,26.7466171 53.7544262,26.4741073 L51.1585575,26.0944916 L49.9976805,23.7281303 C49.162938,22.0262319 46.7491386,22.0270454 45.9148004,23.7281303 L44.7537886,26.0944916 L42.1580547,26.4741073 C40.2914065,26.7467526 39.546014,29.0565784 40.8962377,30.3806236 L41.375871,30.8509403 L37.7595518,30.8509403 C37.8187142,30.2636206 37.6257288,29.6551509 37.1795176,29.2059843 L31.461922,23.4539935 C30.6736739,22.6611391 29.3913724,22.6611391 28.603259,23.4539935 C26.6492823,25.4198603 26.0722129,26.0002656 25.0853192,26.9932317 L21.2107878,23.0953923 C20.2635154,22.1422858 18.9254207,21.7816509 17.631125,22.130355 C16.3369641,22.4791947 15.3573478,23.4648397 15.0105941,24.7666502 L12.9843826,32.3740125 C11.7745854,32.8908321 10.8254263,33.8452944 10.3115623,35.0630472 L2.74982459,37.1013121 C-0.00574218447,37.8438675 -0.930508615,41.3075892 1.0884255,43.3390753 L4.96295696,47.2369147 C2.97555816,49.2362691 1.63665485,50.5833624 1.44501716,50.7760173 C0.654882275,51.5707698 0.654882275,52.8572602 1.44501716,53.6521483 L7.1626127,59.4042746 C7.55666939,59.8007018 8.07430679,59.9989154 8.5919442,59.9989154 C9.1095816,59.9989154 9.627219,59.8007018 10.0212757,59.4042746 L36.3815662,32.8845956 L66.9785053,32.8845956 L66.9785053,56.949517 C66.9771577,57.5080943 66.5243429,57.9648533 65.967758,57.9663447 L31.872555,57.9663447 C31.3159701,57.9648533 30.8631553,57.5080943 30.8618077,56.949517 L30.8618077,43.9815748 C30.8618077,43.4216417 30.4089928,42.9647472 29.8510603,42.9647472 C29.2944754,42.9647472 28.8416606,43.420286 28.840313,43.9788633 C28.840313,43.9802191 28.840313,43.9815748 28.840313,43.9815748 L28.840313,56.949517 C28.840313,57.7643349 29.1556661,58.5303451 29.728423,59.1065474 C30.3011798,59.6812584 31.0626095,60 31.872555,60 L65.967758,60 C67.6360302,60 69,58.6424673 69,56.949517 L69,31.8677679 C69,31.3018694 68.5400426,30.8509403 67.9892527,30.8509403 Z M16.9628189,25.2932314 C17.298387,24.0333141 18.8632934,23.6100427 19.781052,24.5334578 L23.6555834,28.4312971 C22.2641213,29.8311299 20.6683534,31.4364974 18.9835049,33.1316169 L20.2030053,28.5529097 C20.3474748,28.0103305 20.0275396,27.4528378 19.4883396,27.3074992 C18.9491395,27.1620251 18.3948457,27.4840205 18.250511,28.0264642 L17.0765616,32.4342087 C16.4761777,32.1550556 15.8345553,31.9999555 15.1841731,31.9718911 L16.9628189,25.2932314 Z M14.106986,34.1253965 C15.2027708,33.8038078 16.3767202,34.1160417 17.1657769,34.9604154 C15.7481701,36.3864145 14.2991627,37.8441386 12.8818254,39.2701378 C11.1692151,37.6467385 11.876873,34.7798268 14.106986,34.1253965 Z M2.51748747,41.901281 C2.0869091,41.4679769 1.92384186,40.8559822 2.08151845,40.2641885 C2.23906027,39.6723948 2.68446293,39.2244483 3.27258311,39.0658232 L9.91144115,37.2763421 C9.93933778,37.9306368 10.0935104,38.576119 10.3708595,39.1802502 L5.98960672,40.3612616 C5.45027194,40.5064646 5.13033672,41.0642285 5.27494097,41.6066721 C5.41941045,42.1491158 5.97356953,42.4709757 6.51276954,42.3257727 L11.0640974,41.0989362 C9.37911422,42.7940557 7.78294203,44.3999655 6.39188416,45.799256 L2.51748747,41.901281 Z M8.5915399,57.9663447 L2.87407913,52.2143539 C3.08795326,51.9991932 4.72900264,50.3482718 7.10668468,47.9562864 C7.10668468,47.9561508 7.10668468,47.9561508 7.10668468,47.9561508 L7.10681944,47.9560152 C8.95850856,46.093187 23.5705459,31.3929772 25.7994459,29.1505332 L25.7997155,29.1502621 C27.5722968,27.3668819 25.2652323,29.6879606 30.0321862,24.8921946 L35.7505904,30.6431007 L8.5915399,57.9663447 Z M53.6051052,28.9243908 L51.6404819,30.8510758 L44.2717295,30.8510758 C42.1594023,28.7794589 42.1750352,28.87016 42.2425531,28.6613714 C42.3108797,28.4498712 42.2107483,28.5213203 45.5702029,28.0302603 C45.899437,27.982266 46.1840634,27.7741553 46.3312283,27.4739878 C47.8384547,24.4018125 47.7377843,24.4850568 47.9561057,24.4850568 C48.1745619,24.4850568 48.0737567,24.4018125 49.5808483,27.4739878 C49.7281479,27.7741553 50.0126396,27.9821305 50.3418737,28.0302603 L53.4637353,28.4866126 C53.6746446,28.5173886 53.7579302,28.7744426 53.6051052,28.9243908 Z" id="Shape" fill-rule="nonzero"></path>
            </g>
        </g>
    </g>
</svg>