<?xml version="1.0" encoding="UTF-8"?>
<svg width="59px" height="59px" viewBox="0 0 59 59" version="1.1" xmlns="http://www.w3.org/2000/svg" xmlns:xlink="http://www.w3.org/1999/xlink">
    <!-- Generator: Sketch 52.4 (67378) - http://www.bohemiancoding.com/sketch -->
    <title>paper-plane</title>
    <desc>Created with Sketch.</desc>
    <g id="Welcome" stroke="none" stroke-width="1" fill="none" fill-rule="evenodd">
        <g id="Desktop" transform="translate(-378.000000, -765.000000)" fill="#788BE8">
            <g id="paper-plane" transform="translate(378.000000, 765.000000)">
                <path d="M58.4161906,0.150605891 C58.0552587,-0.0533641764 57.6113553,-0.0499264787 57.2537793,0.159543905 L36.0475546,12.5769666 C35.4974198,12.8990789 35.3151602,13.6017443 35.6404502,14.1465048 C35.9656245,14.6911507 36.675222,14.8716299 37.2254724,14.5496322 L52.440621,5.64038005 L24.1000027,34.7591698 L10.0043332,30.4888617 L28.3998253,19.7174087 C28.94996,19.3951818 29.1322196,18.6925164 28.8069296,18.1477558 C28.4817553,17.6031099 27.7720422,17.4224016 27.2219074,17.7446285 L6.56824755,29.8383347 C6.17364101,30.0694625 5.95388799,30.5093733 6.00816085,30.9602846 C6.06243372,31.411196 6.38031764,31.7877385 6.81866648,31.9205482 L23.6523962,37.0202582 L31.0789838,50.4058512 C31.0867371,50.4197166 31.0947218,50.4314048 31.1029379,50.4418325 C31.2268745,50.6464901 31.4126057,50.8136768 31.6442779,50.9101615 C31.7892756,50.9705504 31.9416793,51 32.0930416,51 C32.389633,51 32.6815955,50.8870143 32.9020429,50.6735333 L41.4415135,42.4093079 L57.5041982,47.2754836 C57.6152898,47.3090585 57.7292744,47.325674 57.8426804,47.325674 C58.0875447,47.325674 58.3294003,47.2486696 58.5309853,47.1009632 C58.8259565,46.8848466 59,46.5430248 59,46.1797748 L59,1.14593399 C59,0.734441563 58.7771225,0.354461369 58.4161906,0.150605891 Z M31.1420514,37.726476 C31.0080472,37.9181849 30.9361848,38.1457605 30.9361848,38.378951 L30.9361848,45.3885313 L25.8649701,36.2482659 L48.3055842,13.191627 L31.1420514,37.726476 Z M33.2505927,47.1319025 L33.2505927,39.9279776 L38.9197347,41.6454514 L33.2505927,47.1319025 Z M56.6855922,44.6308628 L33.9466508,37.7421748 L56.6855922,5.23725269 L56.6855922,44.6308628 Z" id="Shape" fill-rule="nonzero"></path>
                <path d="M18.664112,40.3358903 C18.2161465,39.8880366 17.4901811,39.8880366 17.042101,40.3358903 L6.33588805,51.042174 C5.88803732,51.4900277 5.88803732,52.2162274 6.33588805,52.6641957 C6.55998544,52.8880652 6.85346816,53 7.14695088,53 C7.4404336,53 7.73391632,52.8880652 7.95789903,52.6640811 L18.664112,41.9577973 C19.1119627,41.5100583 19.1119627,40.7838587 18.664112,40.3358903 Z" id="Path"></path>
                <path d="M4.65944371,54.3403703 C4.20525239,53.8865239 3.46919732,53.8865239 3.01500599,54.3404866 L0.340556286,57.0149596 C-0.113518762,57.4690386 -0.113518762,58.2053327 0.340556286,58.659528 C0.567651949,58.8865093 0.865213549,59 1.16277515,59 C1.46033675,59 1.75789835,58.886393 1.98499401,58.6594117 L4.65944371,55.9849386 C5.11351876,55.5308596 5.11351876,54.7945656 4.65944371,54.3403703 Z" id="Path"></path>
                <path d="M16.7069,57.293 C16.521,57.107 16.263,57 16,57 C15.7359,57 15.479,57.107 15.293,57.293 C15.107,57.479 15,57.736 15,58 C15,58.263 15.1069,58.521 15.293,58.707 C15.479,58.893 15.737,59 16,59 C16.263,59 16.521,58.893 16.7069,58.707 C16.8929,58.521 17,58.263 17,58 C17,57.736 16.893,57.479 16.7069,57.293 Z" id="Path"></path>
                <path d="M24.6626131,48.3373905 C24.2129944,47.8875365 23.4837894,47.8875365 23.0334795,48.3373905 L17.3373869,54.0334295 C16.8875377,54.4832835 16.8875377,55.2127267 17.3373869,55.6625807 C17.5623691,55.8875653 17.8571614,56 18.1519537,56 C18.446746,56 18.7415383,55.8874501 18.9665205,55.6625807 L24.6626131,49.9665417 C25.1124623,49.5166877 25.1124623,48.7872445 24.6626131,48.3373905 Z" id="Path"></path>
                <path d="M44.6632629,48.3366485 C44.2141651,47.8877838 43.4863645,47.8877838 43.0372667,48.3366485 L37.3367371,54.0371371 C36.8877543,54.4861167 36.8877543,55.214142 37.3367371,55.6632366 C37.561286,55.8876689 37.8555106,56 38.1497352,56 C38.4439598,56 38.7381844,55.8876689 38.9627333,55.6632366 L44.6632629,49.9627479 C45.1122457,49.5137683 45.1122457,48.785743 44.6632629,48.3366485 Z" id="Path"></path>
                <path d="M32.707,15.293 C32.521,15.107 32.263,15 32,15 C31.737,15 31.479,15.107 31.293,15.293 C31.1071,15.479 31,15.737 31,16.001 C31,16.264 31.107,16.521 31.293,16.707 C31.479,16.894 31.737,17 32,17 C32.263,17 32.521,16.894 32.707,16.707 C32.8929,16.521 33,16.264 33,16.001 C33,15.737 32.893,15.479 32.707,15.293 Z" id="Path"></path>
            </g>
        </g>
    </g>
</svg>