<?xml version="1.0" encoding="UTF-8"?>
<svg width="58px" height="60px" viewBox="0 0 58 60" version="1.1" xmlns="http://www.w3.org/2000/svg" xmlns:xlink="http://www.w3.org/1999/xlink">
    <!-- Generator: Sketch 52.4 (67378) - http://www.bohemiancoding.com/sketch -->
    <title>stopwatch</title>
    <desc>Created with Sketch.</desc>
    <g id="Welcome" stroke="none" stroke-width="1" fill="none" fill-rule="evenodd">
        <g id="Desktop" transform="translate(-589.000000, -764.000000)" fill="#788BE8">
            <g id="stopwatch" transform="translate(589.000000, 764.000000)">
                <path d="M30.634,37.989 C31.675,37.908 32.624,37.377 33.24,36.53 L42.603,23.586 C42.89,23.189 42.847,22.641 42.499,22.293 C42.151,21.946 41.603,21.903 41.206,22.189 L28.26,31.555 C27.416,32.169 26.885,33.118 26.804,34.159 C26.723,35.2 27.1,36.219 27.837,36.956 C28.508,37.628 29.413,38 30.354,38 C30.447,38 30.54,37.996 30.634,37.989 Z M28.798,34.315 C28.833,33.858 29.067,33.441 29.435,33.173 L37.332,27.46 L31.621,35.355 C31.351,35.726 30.934,35.959 30.477,35.995 C30.022,36.025 29.575,35.867 29.25,35.542 C28.928,35.219 28.762,34.771 28.798,34.315 Z" id="Shape" fill-rule="nonzero"></path>
                <path d="M53.034,19.564 C53.024,19.543 53.024,19.521 53.013,19.5 C53.001,19.48 52.982,19.469 52.969,19.45 C51.958,17.716 50.762,16.103 49.404,14.641 L51.552,12.494 L52.966,13.908 L57.208,9.665 L52.966,5.423 L48.723,9.665 L50.138,11.08 L47.99,13.227 C46.528,11.869 44.916,10.672 43.181,9.661 C43.162,9.648 43.151,9.629 43.131,9.617 C43.11,9.605 43.088,9.606 43.067,9.595 C39.974,7.813 36.499,6.626 32.794,6.191 L32.794,5 L34.294,5 C35.673,5 36.794,3.879 36.794,2.5 C36.794,1.121 35.672,0 34.293,0 L25.293,0 C23.914,0 22.793,1.121 22.793,2.5 C22.793,3.879 23.914,5 25.293,5 L26.793,5 L26.793,6.156 C25.713,6.271 24.635,6.447 23.569,6.691 C23.031,6.814 22.694,7.351 22.818,7.889 C22.941,8.427 23.478,8.765 24.016,8.64 C24.936,8.429 25.865,8.27 26.796,8.163 L27.869,8.08 C28.197,8.055 28.499,8.037 28.793,8.023 L28.793,10 C28.793,10.553 29.24,11 29.793,11 C30.346,11 30.793,10.553 30.793,10 L30.793,8.03 C34.554,8.203 38.098,9.213 41.249,10.875 L40.263,12.582 C39.987,13.061 40.151,13.672 40.629,13.948 C40.786,14.039 40.958,14.082 41.128,14.082 C41.474,14.082 41.81,13.903 41.995,13.582 L42.978,11.879 C46.107,13.864 48.765,16.522 50.75,19.651 L49.047,20.634 C48.57,20.91 48.406,21.521 48.683,22 C48.869,22.321 49.204,22.5 49.55,22.5 C49.72,22.5 49.892,22.457 50.049,22.366 L51.756,21.38 C53.441,24.576 54.454,28.178 54.605,31.999 L52.63,31.999 C52.077,31.999 51.63,32.446 51.63,32.999 C51.63,33.552 52.077,33.999 52.63,33.999 L54.605,33.999 C54.454,37.82 53.441,41.422 51.756,44.618 L50.049,43.632 C49.571,43.356 48.959,43.518 48.683,43.998 C48.407,44.477 48.571,45.088 49.049,45.364 L50.752,46.347 C48.767,49.476 46.109,52.134 42.98,54.119 L41.997,52.416 C41.72,51.936 41.107,51.773 40.631,52.05 C40.152,52.326 39.988,52.938 40.265,53.416 L41.251,55.123 C38.1,56.785 34.556,57.795 30.795,57.968 L30.795,56 C30.795,55.447 30.348,55 29.795,55 C29.242,55 28.795,55.447 28.795,56 L28.795,57.976 C27.198,57.921 25.596,57.721 24.019,57.359 C23.481,57.23 22.944,57.572 22.821,58.11 C22.697,58.648 23.034,59.185 23.572,59.308 C25.568,59.768 27.607,60 29.63,60 C29.679,60 29.726,59.997 29.775,59.996 C29.782,59.996 29.787,60 29.793,60 C29.801,60 29.808,59.995 29.816,59.995 C34.623,59.962 39.133,58.664 43.035,56.422 C43.066,56.408 43.099,56.401 43.129,56.383 C43.149,56.371 43.16,56.352 43.179,56.339 C47.218,53.985 50.593,50.614 52.952,46.578 C52.971,46.551 52.995,46.53 53.012,46.5 C53.024,46.479 53.023,46.457 53.033,46.436 C55.317,42.476 56.63,37.89 56.63,33 C56.63,28.11 55.317,23.524 53.034,19.564 Z M52.965,8.251 L54.379,9.665 L52.965,11.08 L51.55,9.665 L52.965,8.251 Z M28.793,6.021 L28.793,3 L25.293,3 C25.018,3 24.793,2.775 24.793,2.5 C24.793,2.225 25.018,2 25.293,2 L34.293,2 C34.568,2 34.793,2.225 34.793,2.5 C34.793,2.775 34.568,3 34.293,3 L30.793,3 L30.793,6.021 C30.445,6.007 30.113,6 29.793,6 C29.765,6 29.733,6.002 29.705,6.002 C29.68,6.002 29.655,6 29.63,6 C29.466,6 29.302,6.011 29.138,6.014 C29.022,6.017 28.913,6.016 28.793,6.021 Z" id="Shape" fill-rule="nonzero"></path>
                <path d="M20.793,14 L15.793,14 C15.24,14 14.793,14.447 14.793,15 C14.793,15.553 15.24,16 15.793,16 L20.793,16 C21.346,16 21.793,15.553 21.793,15 C21.793,14.447 21.346,14 20.793,14 Z" id="Path"></path>
                <path d="M20.793,21 L10.793,21 C10.24,21 9.793,21.447 9.793,22 C9.793,22.553 10.24,23 10.793,23 L20.793,23 C21.346,23 21.793,22.553 21.793,22 C21.793,21.447 21.346,21 20.793,21 Z" id="Path"></path>
                <path d="M20.793,28 L5.793,28 C5.24,28 4.793,28.447 4.793,29 C4.793,29.553 5.24,30 5.793,30 L20.793,30 C21.346,30 21.793,29.553 21.793,29 C21.793,28.447 21.346,28 20.793,28 Z" id="Path"></path>
                <path d="M20.793,35 L1.793,35 C1.24,35 0.793,35.447 0.793,36 C0.793,36.553 1.24,37 1.793,37 L20.793,37 C21.346,37 21.793,36.553 21.793,36 C21.793,35.447 21.346,35 20.793,35 Z" id="Path"></path>
                <path d="M20.793,42 L7.793,42 C7.24,42 6.793,42.447 6.793,43 C6.793,43.553 7.24,44 7.793,44 L20.793,44 C21.346,44 21.793,43.553 21.793,43 C21.793,42.447 21.346,42 20.793,42 Z" id="Path"></path>
                <path d="M20.793,49 L13.793,49 C13.24,49 12.793,49.447 12.793,50 C12.793,50.553 13.24,51 13.793,51 L20.793,51 C21.346,51 21.793,50.553 21.793,50 C21.793,49.447 21.346,49 20.793,49 Z" id="Path"></path>
            </g>
        </g>
    </g>
</svg>